HIERARCHY
ROOT SpineBase
{
  OFFSET 0.000000 0.000000 0.000000
  CHANNELS 6 Xposition Yposition Zposition Zrotation Xrotation Yrotation
  JOINT SpineMid
  {
    OFFSET 0.000000 24.204177 0.000000
    CHANNELS 3 Zrotation Xrotation Yrotation
    JOINT SpineShoulder
    {
      OFFSET -0.024718 18.014348 -0.682696
      CHANNELS 3 Zrotation Xrotation Yrotation
      JOINT Neck
      {
        OFFSET -0.003031 5.994900 -0.513010
        CHANNELS 3 Zrotation Xrotation Yrotation
        JOINT Head
        {
          OFFSET -4.241304 12.204092 1.445659
          CHANNELS 3 Zrotation Xrotation Yrotation
          End Site
          {
            OFFSET 0 0 0
          }
        }
      }
      JOINT ShoulderLeft
      {
        OFFSET -12.278188 -4.348339 6.539402
        CHANNELS 3 Zrotation Xrotation Yrotation
        JOINT ElbowLeft
        {
          OFFSET 1.312926 -16.193473 -19.676791
          CHANNELS 3 Zrotation Xrotation Yrotation
          JOINT WristLeft
          {
            OFFSET -0.038685 15.593735 8.661993
            CHANNELS 3 Zrotation Xrotation Yrotation
            JOINT HandLeft
            {
              OFFSET 2.202894 4.571714 3.438135
              CHANNELS 3 Zrotation Xrotation Yrotation
              JOINT HandTipLeft
              {
                OFFSET -0.568633 5.052380 2.590571
                CHANNELS 3 Zrotation Xrotation Yrotation
                End Site
                {
                  OFFSET 0 0 0
                }
              }
              JOINT ThumbLeft
              {
                OFFSET -4.067749 -2.261457 2.498323
                CHANNELS 3 Zrotation Xrotation Yrotation
                End Site
                {
                  OFFSET 0 0 0
                }
              }
            }
          }
        }
      }
      JOINT ShoulderRight
      {
        OFFSET 10.315216 -2.972425 -8.204746
        CHANNELS 3 Zrotation Xrotation Yrotation
        JOINT ElbowRight
        {
          OFFSET 8.843248 -17.352515 -2.750029
          CHANNELS 3 Zrotation Xrotation Yrotation
          JOINT WristRight
          {
            OFFSET -23.808538 -1.091059 -5.655160
            CHANNELS 3 Zrotation Xrotation Yrotation
            JOINT HandRight
            {
              OFFSET -6.098062 0.321217 -0.109239
              CHANNELS 3 Zrotation Xrotation Yrotation
              JOINT HandTipRight
              {
                OFFSET -3.778540 0.091775 -1.364163
                CHANNELS 3 Zrotation Xrotation Yrotation
                End Site
                {
                  OFFSET 0 0 0
                }
              }
              JOINT ThumbRight
              {
                OFFSET 0.776626 2.577350 -2.909267
                CHANNELS 3 Zrotation Xrotation Yrotation
                End Site
                {
                  OFFSET 0 0 0
                }
              }
            }
          }
        }
      }
    }
  }
  JOINT HipLeft
  {
    OFFSET -4.088407 0.493680 -1.234595
    CHANNELS 3 Zrotation Xrotation Yrotation
    JOINT KneeLeft
    {
      OFFSET 3.124533 -33.939755 1.055243
      CHANNELS 3 Zrotation Xrotation Yrotation
      JOINT AnkleLeft
      {
        OFFSET 8.385309 -34.516384 5.082623
        CHANNELS 3 Zrotation Xrotation Yrotation
        JOINT FootLeft
        {
          OFFSET 4.594128 -6.408643 -7.450887
          CHANNELS 3 Zrotation Xrotation Yrotation
          End Site
          {
            OFFSET 0 0 0
          }
        }
      }
    }
  }
  JOINT HipRight
  {
    OFFSET 4.097547 1.122687 -4.863584
    CHANNELS 3 Zrotation Xrotation Yrotation
    JOINT KneeRight
    {
      OFFSET 7.288788 -34.240390 -2.656304
      CHANNELS 3 Zrotation Xrotation Yrotation
      JOINT AnkleRight
      {
        OFFSET 2.939368 -35.648366 6.766926
        CHANNELS 3 Zrotation Xrotation Yrotation
        JOINT FootRight
        {
          OFFSET -4.508956 -2.680775 -10.124811
          CHANNELS 3 Zrotation Xrotation Yrotation
          End Site
          {
            OFFSET 0 0 0
          }
        }
      }
    }
  }
}
MOTION
Frames: 8
Frame Time: 0.033333
-1.206682 75.788672 355.938128 -0.000000 0.000000 23.908617 0.000000 0.000000 -23.908617 -0.000000 0.000000 0.000000 -0.000000 0.000000 0.000000 0.000000 0.000000 0.000000 -0.000000 0.000000 0.000000 -0.000000 0.000000 0.000000 -0.000000 0.000000 0.000000 -0.000000 0.000000 0.000000 0.000000 0.000000 0.000000 0.000000 0.000000 0.000000 -0.000000 0.000000 0.000000 -0.000000 0.000000 0.000000 -0.000000 0.000000 0.000000 -0.000000 0.000000 0.000000 0.000000 0.000000 0.000000 0.000000 0.000000 0.000000 0.000000 0.000000 -23.908617 -0.000000 0.000000 0.000000 -0.000000 0.000000 0.000000 0.000000 0.000000 0.000000 0.000000 0.000000 -23.908617 -0.000000 0.000000 0.000000 -0.000000 0.000000 0.000000 0.000000 0.000000 0.000000
-1.194064 75.781576 355.915718 0.007805 0.010104 24.076906 -0.011248 -0.006041 -24.076907 -0.000000 0.000000 0.000000 -0.000000 0.000000 0.000000 0.000000 0.000000 0.000000 0.276397 1.679776 -0.200098 -0.270646 -1.680712 0.192077 -3.249251 6.169670 -0.338033 0.742987 -13.603254 0.758113 0.000000 0.000000 0.000000 0.000000 0.000000 0.000000 -0.000000 0.000000 0.000000 -0.000000 0.000000 0.000000 -4.350667 0.056045 -1.485928 5.263894 -0.191752 3.152752 0.000000 0.000000 0.000000 0.000000 0.000000 0.000000 -0.011248 -0.006041 -24.076907 -0.000000 0.000000 0.000000 -0.000000 0.000000 0.000000 0.000000 0.000000 0.000000 -0.011248 -0.006041 -24.076907 -0.000000 0.000000 0.000000 -0.000000 0.000000 0.000000 0.000000 0.000000 0.000000
-1.180190 75.779310 355.898016 0.013504 0.017840 24.213611 -0.019633 -0.010732 -24.213614 -0.000000 0.000000 0.000000 -0.000000 0.000000 0.000000 0.000000 0.000000 0.000000 0.508897 3.060117 -0.371599 -0.978466 -4.255468 0.587082 -5.260932 12.449138 -0.619948 1.393047 -25.558701 0.957503 0.000000 0.000000 0.000000 0.000000 0.000000 0.000000 -0.000000 0.000000 0.000000 0.309182 -0.015991 -1.332947 -8.221729 0.011532 -1.409974 9.485131 -0.179238 5.693939 0.000000 0.000000 0.000000 0.000000 0.000000 0.000000 0.930994 -0.295596 -24.168541 -2.320472 -0.630612 -0.372012 1.767448 0.268428 -0.367105 0.000000 0.000000 0.000000 -0.019633 -0.010732 -24.213614 -0.000000 0.000000 0.000000 -0.000000 0.000000 0.000000 0.000000 0.000000 0.000000
-1.165062 75.781873 355.885024 0.017103 0.023213 24.318938 -0.025145 -0.014110 -24.318944 -0.000000 0.000000 0.000000 -0.000000 0.000000 0.000000 0.000000 0.000000 0.000000 0.695066 4.141842 -0.511057 -1.452563 -6.535080 0.835836 -6.742681 17.534844 -0.676156 1.708463 -35.889848 0.750251 0.000000 0.000000 0.000000 0.000000 0.000000 0.000000 -0.573221 0.649994 0.426054 0.956270 -0.669135 -2.301970 -11.125079 -0.005976 -1.899301 12.770326 -0.059619 7.736364 0.000000 0.000000 0.000000 0.000000 0.000000 0.000000 1.250187 -0.406122 -24.257709 -3.139440 -0.825811 -0.503416 2.513986 0.402081 -0.601753 0.000000 0.000000 0.000000 -0.025145 -0.014110 -24.318944 -0.000000 0.000000 0.000000 -0.000000 0.000000 0.000000 0.000000 0.000000 0.000000
-1.148679 75.789266 355.876742 0.018605 0.026229 24.393044 -0.027777 -0.016204 -24.393052 -0.000000 0.000000 0.000000 -0.000000 0.000000 0.000000 0.000000 0.000000 0.000000 0.833013 4.926922 -0.615787 -1.918203 -8.920336 1.056646 -7.487830 21.874153 -0.734700 1.561157 -44.750471 0.189189 0.000000 0.000000 0.000000 0.000000 0.000000 0.000000 -0.846300 0.809395 0.554057 1.250916 -0.819740 -2.892895 -13.298303 -0.039222 -2.279750 15.218256 0.104922 9.369074 0.000000 0.000000 0.000000 0.000000 0.000000 0.000000 1.479666 -0.492468 -24.320260 -3.727116 -0.939345 -0.592744 3.167367 0.526994 -0.882032 0.000000 0.000000 0.000000 -0.027777 -0.016204 -24.393052 -0.000000 0.000000 0.000000 -0.000000 0.000000 0.000000 0.000000 0.000000 0.000000
-1.131042 75.801487 355.873168 0.018012 0.026889 24.436036 -0.027522 -0.017029 -24.436045 -0.000000 0.000000 0.000000 -0.000000 0.000000 0.000000 0.000000 0.000000 0.000000 0.921379 5.417549 -0.683854 -2.376830 -11.414506 1.250266 -7.537213 25.573734 -0.897890 0.874357 -52.334017 -0.724457 0.000000 0.000000 0.000000 0.000000 0.000000 0.000000 -1.160896 0.939613 0.674964 1.530350 -0.931164 -3.385921 -14.795143 -0.083939 -2.574239 16.911242 0.275624 10.660888 0.000000 0.000000 0.000000 0.000000 0.000000 0.000000 1.623499 -0.555093 -24.356465 -4.081414 -0.970459 -0.637203 3.731545 0.641552 -1.216950 0.000000 0.000000 0.000000 -0.027522 -0.017029 -24.436045 -0.000000 0.000000 0.000000 -0.000000 0.000000 0.000000 0.000000 0.000000 0.000000
-1.112633 75.821964 355.876724 0.012848 0.024559 24.499888 -0.021875 -0.017020 -24.499894 -0.000000 0.000000 0.000000 -0.000000 0.000000 0.000000 0.000000 0.000000 0.000000 0.936874 5.081098 -0.728021 -3.022735 -14.677803 1.534445 -6.508996 30.033928 -1.436188 -2.507028 -62.755184 -3.700928 0.000000 0.000000 0.000000 0.000000 0.000000 0.000000 -1.619809 1.088276 0.831461 2.108472 -1.115152 -3.755184 -16.080091 -0.073299 -2.804022 18.327163 0.284679 9.559219 0.000000 0.000000 0.000000 0.000000 0.000000 0.000000 1.652159 -0.604965 -24.421309 -4.344284 -0.913683 -0.662660 5.370813 1.624575 -2.125672 0.000000 0.000000 0.000000 -0.021875 -0.017020 -24.499894 -0.000000 0.000000 0.000000 -0.000000 0.000000 0.000000 0.000000 0.000000 0.000000
-1.095141 75.846972 355.885449 0.012385 0.029235 24.500343 -0.023394 -0.021467 -24.500350 -0.000000 0.000000 0.000000 -0.000000 0.000000 0.000000 0.000000 0.000000 0.000000 0.861834 4.067301 -0.716573 -3.584152 -17.434432 1.784485 -5.139672 32.886720 -1.717239 -5.096322 -67.052792 -6.422311 0.000000 0.000000 0.000000 0.000000 0.000000 0.000000 -2.053059 1.135532 0.931487 2.263291 -1.092741 -3.903200 -15.944353 -0.139018 -2.833288 16.271890 0.871018 12.883002 0.000000 0.000000 0.000000 0.000000 0.000000 0.000000 1.565622 -0.574410 -24.425748 -4.224848 -0.824439 -0.631931 6.562655 1.215620 -3.747041 0.000000 0.000000 0.000000 -0.023394 -0.021467 -24.500350 -0.000000 0.000000 0.000000 -0.000000 0.000000 0.000000 0.000000 0.000000 0.000000
